<svg width="584" height="583" viewBox="0 0 584 583" fill="none" xmlns="http://www.w3.org/2000/svg">
<g filter="url(#filter0_d_1_80)">
<path d="M4.65805 287.467C4.65805 129.448 133.608 0.5 291.625 0.5C449.638 0.5 578.591 129.453 578.591 287.467C578.591 445.48 449.638 574.433 291.625 574.433C133.612 574.433 4.65805 445.484 4.65805 287.467ZM194.559 310.367H388.693C399.422 310.367 407.859 301.929 407.859 291.2C407.859 280.471 399.422 272.033 388.693 272.033H194.559C183.83 272.033 175.393 280.471 175.393 291.2C175.393 301.929 183.83 310.367 194.559 310.367Z" fill="black" stroke="black"/>
</g>
<defs>
<filter id="filter0_d_1_80" x="0.158051" y="0" width="582.933" height="582.933" filterUnits="userSpaceOnUse" color-interpolation-filters="sRGB">
<feFlood flood-opacity="0" result="BackgroundImageFix"/>
<feColorMatrix in="SourceAlpha" type="matrix" values="0 0 0 0 0 0 0 0 0 0 0 0 0 0 0 0 0 0 127 0" result="hardAlpha"/>
<feOffset dy="4"/>
<feGaussianBlur stdDeviation="2"/>
<feComposite in2="hardAlpha" operator="out"/>
<feColorMatrix type="matrix" values="0 0 0 0 0 0 0 0 0 0 0 0 0 0 0 0 0 0 0.25 0"/>
<feBlend mode="normal" in2="BackgroundImageFix" result="effect1_dropShadow_1_80"/>
<feBlend mode="normal" in="SourceGraphic" in2="effect1_dropShadow_1_80" result="shape"/>
</filter>
</defs>
</svg>
